<svg xmlns="http://www.w3.org/2000/svg" viewBox="0 0 131.88 67.83"><defs><style>.cls-1{font-size:12.62px;font-family:Tahoma;letter-spacing:0.2em;}.cls-2,.cls-3{fill:#009e4d;}.cls-3{fill-rule:evenodd;}</style></defs><title>endurancelogo</title><g id="Livello_2" data-name="Livello 2"><g id="Livello_1-2" data-name="Livello 1"><text class="cls-1" transform="translate(0 62.55) scale(0.94 1)">Hydraulic Motors</text><path class="cls-2" d="M57.55,12.9H19.45a2.72,2.72,0,0,0-2,1.45,4,4,0,0,0,.68,4c1,1.39,10.56,15.17,11,15.74s1,1.49.37,2a4.29,4.29,0,0,1-2.1.41H5L.73,43.78l38.46,0a2.87,2.87,0,0,0,2.47-2.27A2.91,2.91,0,0,0,41,38.91c-.64-1-12.36-17.6-12.36-17.6a1,1,0,0,1-.23-1c.21-.45,1.26-.28,1.61-.28H53.76l3.79-7.09Z"/><path class="cls-3" d="M61.83,27.27,66.11,20s19.6,0,21.17,0c.91,0,1.15.41.82,1.09-.2.41-3.58,6.19-3.58,6.19Zm-18,16.56,18-30.93H97.12s1.66.18,2.1,1.4a6.71,6.71,0,0,1-.78,4.21c-.62,1-9.36,16.11-9.57,16.38s-.48,1-.13,1.32a1.5,1.5,0,0,0,1.31.55h9.43l-4,7.08H75.34s5.56-9.64,5.14-9.64H57.59l-5.2,9.65Z"/><path class="cls-2" d="M122.65,36.5l-4.12,7.33s-14.73.07-15.07,0a2.62,2.62,0,0,1-2.55-1.73c-.51-1,.14-2.82.43-3.53S116.47,12.9,116.47,12.9h7.87l-12.66,22s-.56,1.36.26,1.61Z"/><polygon class="cls-2" points="131.88 0 124.04 0 120.08 6.95 128.13 6.95 131.88 0 131.88 0"/></g></g></svg>